<?xml version="1.0" encoding="UTF-8"?><svg xmlns="http://www.w3.org/2000/svg" xmlns:xlink="http://www.w3.org/1999/xlink" fill-opacity="1" color-rendering="auto" color-interpolation="auto" text-rendering="auto" stroke="black" stroke-linecap="square" width="1715" stroke-miterlimit="10" shape-rendering="auto" stroke-opacity="1" fill="black" stroke-dasharray="none" font-weight="normal" stroke-width="1" height="618" font-family="'Dialog'" font-style="normal" stroke-linejoin="miter" font-size="12px" stroke-dashoffset="0" image-rendering="auto">
  <!--Generated by ySVG 2.6-->
  <defs id="genericDefs"/>
  <g>
    <defs id="defs1">
      <clipPath clipPathUnits="userSpaceOnUse" id="clipPath1">
        <path d="M0 0 L1715 0 L1715 618 L0 618 L0 0 Z"/>
      </clipPath>
      <clipPath clipPathUnits="userSpaceOnUse" id="clipPath2">
        <path d="M-714 -295 L1001 -295 L1001 323 L-714 323 L-714 -295 Z"/>
      </clipPath>
    </defs>
    <g fill="white" text-rendering="geometricPrecision" shape-rendering="geometricPrecision" transform="translate(714,295)" stroke="white">
      <rect x="-714" width="1715" height="618" y="-295" clip-path="url(#clipPath2)" stroke="none"/>
    </g>
    <g id="y.node.0">
      <a target="_blank" xlink:type="simple" xlink:href="http://example.org/ex#PersoonVoldoetAanDeCriteria" xlink:show="new">
        <g fill="rgb(255,204,0)" text-rendering="geometricPrecision" shape-rendering="geometricPrecision" transform="matrix(1,0,0,1,714,295)" stroke="rgb(255,204,0)">
          <ellipse rx="97.2578" ry="33" cx="194.2656" cy="80.4039" stroke="none"/>
        </g>
        <g text-rendering="geometricPrecision" stroke-miterlimit="1.45" shape-rendering="geometricPrecision" transform="matrix(1,0,0,1,714,295)" stroke-linecap="butt">
          <ellipse rx="97.2578" fill="none" ry="33" cx="194.2656" cy="80.4039"/>
        </g>
        <g>
          <g text-rendering="geometricPrecision" stroke-miterlimit="1.45" shape-rendering="geometricPrecision" font-family="sans-serif" transform="matrix(1,0,0,1,714,295)" stroke-linecap="butt">
            <text x="104.0077" xml:space="preserve" y="84.939" stroke="none">Persoon voldoet aan de criteria</text>
          </g>
        </g>
      </a>
    </g>
    <g id="y.node.1">
      <a target="_blank" xlink:type="simple" xlink:href="http://example.org/doc#Artikel36lid2Pw" xlink:show="new">
        <g fill="rgb(160,160,160)" text-rendering="geometricPrecision" shape-rendering="geometricPrecision" transform="matrix(1,0,0,1,714,295)" stroke="rgb(160,160,160)">
          <ellipse rx="60.3174" ry="33" cx="925.4888" cy="-246.0726" stroke="none"/>
        </g>
        <g text-rendering="geometricPrecision" stroke-miterlimit="1.45" shape-rendering="geometricPrecision" transform="matrix(1,0,0,1,714,295)" stroke-linecap="butt">
          <ellipse rx="60.3174" fill="none" ry="33" cx="925.4888" cy="-246.0726"/>
        </g>
        <g>
          <g text-rendering="geometricPrecision" stroke-miterlimit="1.45" shape-rendering="geometricPrecision" font-family="sans-serif" transform="matrix(1,0,0,1,714,295)" stroke-linecap="butt">
            <text x="872.1714" xml:space="preserve" y="-241.5374" stroke="none">Artikel 36 lid 2 Pw</text>
          </g>
        </g>
      </a>
    </g>
    <g id="y.node.2">
      <a target="_blank" xlink:type="simple" xlink:href="http://example.org/ex#BevoegdheidTotVerlenenIndividueleInkomenstoeslag" xlink:show="new">
        <g fill="rgb(255,204,0)" text-rendering="geometricPrecision" shape-rendering="geometricPrecision" transform="matrix(1,0,0,1,714,295)" stroke="rgb(255,204,0)">
          <ellipse rx="44.0225" ry="33" cx="-84.7496" cy="-82.8344" stroke="none"/>
        </g>
        <g text-rendering="geometricPrecision" stroke-miterlimit="1.45" shape-rendering="geometricPrecision" transform="matrix(1,0,0,1,714,295)" stroke-linecap="butt">
          <ellipse rx="44.0225" fill="none" ry="33" cx="-84.7496" cy="-82.8344"/>
        </g>
        <g>
          <g text-rendering="geometricPrecision" stroke-miterlimit="1.45" shape-rendering="geometricPrecision" font-family="sans-serif" transform="matrix(1,0,0,1,714,295)" stroke-linecap="butt">
            <text x="-121.7721" xml:space="preserve" y="-78.2992" stroke="none">Bevoegdheid</text>
          </g>
        </g>
      </a>
    </g>
    <g id="y.node.3">
      <a target="_blank" xlink:type="simple" xlink:href="http://example.org/ex#HetCollege" xlink:show="new">
        <g fill="rgb(255,204,0)" text-rendering="geometricPrecision" shape-rendering="geometricPrecision" transform="matrix(1,0,0,1,714,295)" stroke="rgb(255,204,0)">
          <rect x="-688.1906" y="-115.8344" width="79.0977" rx="4" ry="4" height="66" stroke="none"/>
        </g>
        <g text-rendering="geometricPrecision" stroke-miterlimit="1.45" shape-rendering="geometricPrecision" transform="matrix(1,0,0,1,714,295)" stroke-linecap="butt">
          <rect x="-688.1906" y="-115.8344" fill="none" width="79.0977" rx="4" ry="4" height="66"/>
        </g>
        <g>
          <g text-rendering="geometricPrecision" stroke-miterlimit="1.45" shape-rendering="geometricPrecision" font-family="sans-serif" transform="matrix(1,0,0,1,714,295)" stroke-linecap="butt">
            <text x="-673.4298" xml:space="preserve" y="-85.3656" stroke="none">«Begrip»</text>
            <text x="-681.1906" xml:space="preserve" y="-71.2328" stroke="none">Het college</text>
          </g>
        </g>
      </a>
    </g>
    <g id="y.node.4">
      <a target="_blank" xlink:type="simple" xlink:href="http://example.org/doc#Artikel1submPw" xlink:show="new">
        <g fill="rgb(160,160,160)" text-rendering="geometricPrecision" shape-rendering="geometricPrecision" transform="matrix(1,0,0,1,714,295)" stroke="rgb(160,160,160)">
          <ellipse rx="51.8066" ry="33" cx="925.4888" cy="178.6666" stroke="none"/>
        </g>
        <g text-rendering="geometricPrecision" stroke-miterlimit="1.45" shape-rendering="geometricPrecision" transform="matrix(1,0,0,1,714,295)" stroke-linecap="butt">
          <ellipse rx="51.8066" fill="none" ry="33" cx="925.4888" cy="178.6666"/>
        </g>
        <g>
          <g text-rendering="geometricPrecision" stroke-miterlimit="1.45" shape-rendering="geometricPrecision" font-family="sans-serif" transform="matrix(1,0,0,1,714,295)" stroke-linecap="butt">
            <text x="880.6822" xml:space="preserve" y="183.2018" stroke="none">Artikel 1 sub m</text>
          </g>
        </g>
      </a>
    </g>
    <g id="y.node.5">
      <a target="_blank" xlink:type="simple" xlink:href="http://example.org/ex#HetCollegeDefinitie" xlink:show="new">
        <g fill="rgb(255,204,0)" text-rendering="geometricPrecision" shape-rendering="geometricPrecision" transform="matrix(1,0,0,1,714,295)" stroke="rgb(255,204,0)">
          <ellipse rx="25.501" ry="33" cx="-648.6418" cy="80.4039" stroke="none"/>
        </g>
        <g text-rendering="geometricPrecision" stroke-miterlimit="1.45" shape-rendering="geometricPrecision" transform="matrix(1,0,0,1,714,295)" stroke-linecap="butt">
          <ellipse rx="25.501" fill="none" ry="33" cx="-648.6418" cy="80.4039"/>
        </g>
        <g>
          <g text-rendering="geometricPrecision" stroke-miterlimit="1.45" shape-rendering="geometricPrecision" font-family="sans-serif" transform="matrix(1,0,0,1,714,295)" stroke-linecap="butt">
            <text x="-667.1427" xml:space="preserve" y="84.939" stroke="none">Begrip</text>
          </g>
        </g>
      </a>
    </g>
    <g id="y.node.6">
      <a target="_blank" xlink:type="simple" xlink:href="http://example.org/ex#LangdurigEnLaagInkomenDefinitie" xlink:show="new">
        <g fill="rgb(255,204,0)" text-rendering="geometricPrecision" shape-rendering="geometricPrecision" transform="matrix(1,0,0,1,714,295)" stroke="rgb(255,204,0)">
          <ellipse rx="25.501" ry="33" cx="743.6895" cy="274.6666" stroke="none"/>
        </g>
        <g text-rendering="geometricPrecision" stroke-miterlimit="1.45" shape-rendering="geometricPrecision" transform="matrix(1,0,0,1,714,295)" stroke-linecap="butt">
          <ellipse rx="25.501" fill="none" ry="33" cx="743.6895" cy="274.6666"/>
        </g>
        <g>
          <g text-rendering="geometricPrecision" stroke-miterlimit="1.45" shape-rendering="geometricPrecision" font-family="sans-serif" transform="matrix(1,0,0,1,714,295)" stroke-linecap="butt">
            <text x="725.1885" xml:space="preserve" y="279.2018" stroke="none">Begrip</text>
          </g>
        </g>
      </a>
    </g>
    <g id="y.node.7">
      <a target="_blank" xlink:type="simple" xlink:href="http://example.org/ex#PensioengerechtigdeLeeftijdDefinitie" xlink:show="new">
        <g fill="rgb(255,204,0)" text-rendering="geometricPrecision" shape-rendering="geometricPrecision" transform="matrix(1,0,0,1,714,295)" stroke="rgb(255,204,0)">
          <ellipse rx="25.501" ry="33" cx="743.6895" cy="178.6666" stroke="none"/>
        </g>
        <g text-rendering="geometricPrecision" stroke-miterlimit="1.45" shape-rendering="geometricPrecision" transform="matrix(1,0,0,1,714,295)" stroke-linecap="butt">
          <ellipse rx="25.501" fill="none" ry="33" cx="743.6895" cy="178.6666"/>
        </g>
        <g>
          <g text-rendering="geometricPrecision" stroke-miterlimit="1.45" shape-rendering="geometricPrecision" font-family="sans-serif" transform="matrix(1,0,0,1,714,295)" stroke-linecap="butt">
            <text x="725.1885" xml:space="preserve" y="183.2018" stroke="none">Begrip</text>
          </g>
        </g>
      </a>
    </g>
    <g id="y.node.8">
      <a target="_blank" xlink:type="simple" xlink:href="http://example.org/ex#VerlenenIndividueleInkomenstoeslag" xlink:show="new">
        <g fill="rgb(255,204,0)" text-rendering="geometricPrecision" shape-rendering="geometricPrecision" transform="matrix(1,0,0,1,714,295)" stroke="rgb(255,204,0)">
          <rect x="-468.1341" y="-115.8344" width="235.2207" rx="4" ry="4" height="66" stroke="none"/>
        </g>
        <g text-rendering="geometricPrecision" stroke-miterlimit="1.45" shape-rendering="geometricPrecision" transform="matrix(1,0,0,1,714,295)" stroke-linecap="butt">
          <rect x="-468.1341" y="-115.8344" fill="none" width="235.2207" rx="4" ry="4" height="66"/>
        </g>
        <g>
          <g text-rendering="geometricPrecision" stroke-miterlimit="1.45" shape-rendering="geometricPrecision" font-family="sans-serif" transform="matrix(1,0,0,1,714,295)" stroke-linecap="butt">
            <text x="-386.3099" xml:space="preserve" y="-85.3656" stroke="none">«Handeling»</text>
            <text x="-461.1341" xml:space="preserve" y="-71.2328" stroke="none">Verlenen individuele inkomenstoeslag</text>
          </g>
        </g>
      </a>
    </g>
    <g id="y.node.9">
      <a target="_blank" xlink:type="simple" xlink:href="http://example.org/ex#VermogenAlsBedoeldInArtikel34Definitie" xlink:show="new">
        <g fill="rgb(255,204,0)" text-rendering="geometricPrecision" shape-rendering="geometricPrecision" transform="matrix(1,0,0,1,714,295)" stroke="rgb(255,204,0)">
          <ellipse rx="25.501" ry="33" cx="743.6895" cy="82.6666" stroke="none"/>
        </g>
        <g text-rendering="geometricPrecision" stroke-miterlimit="1.45" shape-rendering="geometricPrecision" transform="matrix(1,0,0,1,714,295)" stroke-linecap="butt">
          <ellipse rx="25.501" fill="none" ry="33" cx="743.6895" cy="82.6666"/>
        </g>
        <g>
          <g text-rendering="geometricPrecision" stroke-miterlimit="1.45" shape-rendering="geometricPrecision" font-family="sans-serif" transform="matrix(1,0,0,1,714,295)" stroke-linecap="butt">
            <text x="725.1885" xml:space="preserve" y="87.2018" stroke="none">Begrip</text>
          </g>
        </g>
      </a>
    </g>
    <g id="y.node.10">
      <a target="_blank" xlink:type="simple" xlink:href="http://example.org/ex#PensioengerechtigdeLeeftijd" xlink:show="new">
        <g fill="rgb(255,204,0)" text-rendering="geometricPrecision" shape-rendering="geometricPrecision" transform="matrix(1,0,0,1,714,295)" stroke="rgb(255,204,0)">
          <rect x="434.5973" y="145.6666" width="179.0996" rx="4" ry="4" height="66" stroke="none"/>
        </g>
        <g text-rendering="geometricPrecision" stroke-miterlimit="1.45" shape-rendering="geometricPrecision" transform="matrix(1,0,0,1,714,295)" stroke-linecap="butt">
          <rect x="434.5973" y="145.6666" fill="none" width="179.0996" rx="4" ry="4" height="66"/>
        </g>
        <g>
          <g text-rendering="geometricPrecision" stroke-miterlimit="1.45" shape-rendering="geometricPrecision" font-family="sans-serif" transform="matrix(1,0,0,1,714,295)" stroke-linecap="butt">
            <text x="499.359" xml:space="preserve" y="176.1354" stroke="none">«Begrip»</text>
            <text x="441.5973" xml:space="preserve" y="190.2682" stroke="none">Pensioengerechtigde leeftijd</text>
          </g>
        </g>
      </a>
    </g>
    <g id="y.node.11">
      <a target="_blank" xlink:type="simple" xlink:href="http://example.org/ex#UitzichtOpInkomensverbetering" xlink:show="new">
        <g fill="rgb(255,204,0)" text-rendering="geometricPrecision" shape-rendering="geometricPrecision" transform="matrix(1,0,0,1,714,295)" stroke="rgb(255,204,0)">
          <rect x="421.8971" y="-46.3334" width="204.5" rx="4" ry="4" height="66" stroke="none"/>
        </g>
        <g text-rendering="geometricPrecision" stroke-miterlimit="1.45" shape-rendering="geometricPrecision" transform="matrix(1,0,0,1,714,295)" stroke-linecap="butt">
          <rect x="421.8971" y="-46.3334" fill="none" width="204.5" rx="4" ry="4" height="66"/>
        </g>
        <g>
          <g text-rendering="geometricPrecision" stroke-miterlimit="1.45" shape-rendering="geometricPrecision" font-family="sans-serif" transform="matrix(1,0,0,1,714,295)" stroke-linecap="butt">
            <text x="499.359" xml:space="preserve" y="-15.8646" stroke="none">«Begrip»</text>
            <text x="428.8971" xml:space="preserve" y="-1.7318" stroke="none">Uitzicht op inkomensverbetering</text>
          </g>
        </g>
      </a>
    </g>
    <g id="y.node.12">
      <a target="_blank" xlink:type="simple" xlink:href="http://example.org/doc#Artikel34Pw" xlink:show="new">
        <g fill="rgb(160,160,160)" text-rendering="geometricPrecision" shape-rendering="geometricPrecision" transform="matrix(1,0,0,1,714,295)" stroke="rgb(160,160,160)">
          <ellipse rx="45.4814" ry="33" cx="925.4888" cy="82.6666" stroke="none"/>
        </g>
        <g text-rendering="geometricPrecision" stroke-miterlimit="1.45" shape-rendering="geometricPrecision" transform="matrix(1,0,0,1,714,295)" stroke-linecap="butt">
          <ellipse rx="45.4814" fill="none" ry="33" cx="925.4888" cy="82.6666"/>
        </g>
        <g>
          <g text-rendering="geometricPrecision" stroke-miterlimit="1.45" shape-rendering="geometricPrecision" font-family="sans-serif" transform="matrix(1,0,0,1,714,295)" stroke-linecap="butt">
            <text x="887.0074" xml:space="preserve" y="87.2018" stroke="none">Artikel 34 Pw</text>
          </g>
        </g>
      </a>
    </g>
    <g id="y.node.13">
      <a target="_blank" xlink:type="simple" xlink:href="http://example.org/doc#Artikel1subbPw" xlink:show="new">
        <g fill="rgb(160,160,160)" text-rendering="geometricPrecision" shape-rendering="geometricPrecision" transform="matrix(1,0,0,1,714,295)" stroke="rgb(160,160,160)">
          <ellipse rx="49.9814" ry="33" cx="-648.6418" cy="243.6421" stroke="none"/>
        </g>
        <g text-rendering="geometricPrecision" stroke-miterlimit="1.45" shape-rendering="geometricPrecision" transform="matrix(1,0,0,1,714,295)" stroke-linecap="butt">
          <ellipse rx="49.9814" fill="none" ry="33" cx="-648.6418" cy="243.6421"/>
        </g>
        <g>
          <g text-rendering="geometricPrecision" stroke-miterlimit="1.45" shape-rendering="geometricPrecision" font-family="sans-serif" transform="matrix(1,0,0,1,714,295)" stroke-linecap="butt">
            <text x="-691.6232" xml:space="preserve" y="248.1773" stroke="none">Artikel 1 sub b</text>
          </g>
        </g>
      </a>
    </g>
    <g id="y.node.14">
      <a target="_blank" xlink:type="simple" xlink:href="http://example.org/ex#LangdurigEnLaagInkomen" xlink:show="new">
        <g fill="rgb(255,204,0)" text-rendering="geometricPrecision" shape-rendering="geometricPrecision" transform="matrix(1,0,0,1,714,295)" stroke="rgb(255,204,0)">
          <rect x="437.5563" y="241.6666" width="173.1816" rx="4" ry="4" height="66" stroke="none"/>
        </g>
        <g text-rendering="geometricPrecision" stroke-miterlimit="1.45" shape-rendering="geometricPrecision" transform="matrix(1,0,0,1,714,295)" stroke-linecap="butt">
          <rect x="437.5563" y="241.6666" fill="none" width="173.1816" rx="4" ry="4" height="66"/>
        </g>
        <g>
          <g text-rendering="geometricPrecision" stroke-miterlimit="1.45" shape-rendering="geometricPrecision" font-family="sans-serif" transform="matrix(1,0,0,1,714,295)" stroke-linecap="butt">
            <text x="499.359" xml:space="preserve" y="272.1354" stroke="none">«Begrip»</text>
            <text x="444.5563" xml:space="preserve" y="286.2682" stroke="none">Langdurig en laag inkomen</text>
          </g>
        </g>
      </a>
    </g>
    <g id="y.node.15">
      <a target="_blank" xlink:type="simple" xlink:href="http://example.org/ex#OmstandighedenVanDePersoon" xlink:show="new">
        <g fill="rgb(255,204,0)" text-rendering="geometricPrecision" shape-rendering="geometricPrecision" transform="matrix(1,0,0,1,714,295)" stroke="rgb(255,204,0)">
          <rect x="413.7233" y="-279.0726" width="206.8965" rx="4" ry="4" height="66" stroke="none"/>
        </g>
        <g text-rendering="geometricPrecision" stroke-miterlimit="1.45" shape-rendering="geometricPrecision" transform="matrix(1,0,0,1,714,295)" stroke-linecap="butt">
          <rect x="413.7233" y="-279.0726" fill="none" width="206.8965" rx="4" ry="4" height="66"/>
        </g>
        <g>
          <g text-rendering="geometricPrecision" stroke-miterlimit="1.45" shape-rendering="geometricPrecision" font-family="sans-serif" transform="matrix(1,0,0,1,714,295)" stroke-linecap="butt">
            <text x="492.3834" xml:space="preserve" y="-248.6038" stroke="none">«Begrip»</text>
            <text x="420.7233" xml:space="preserve" y="-234.471" stroke="none">Omstandigheden van de persoon</text>
          </g>
        </g>
      </a>
    </g>
    <g id="y.node.16">
      <a target="_blank" xlink:type="simple" xlink:href="http://example.org/ex#OmstandighedenVanDePersoonDefinitie" xlink:show="new">
        <g fill="rgb(255,204,0)" text-rendering="geometricPrecision" shape-rendering="geometricPrecision" transform="matrix(1,0,0,1,714,295)" stroke="rgb(255,204,0)">
          <ellipse rx="25.501" ry="33" cx="743.6895" cy="-246.0726" stroke="none"/>
        </g>
        <g text-rendering="geometricPrecision" stroke-miterlimit="1.45" shape-rendering="geometricPrecision" transform="matrix(1,0,0,1,714,295)" stroke-linecap="butt">
          <ellipse rx="25.501" fill="none" ry="33" cx="743.6895" cy="-246.0726"/>
        </g>
        <g>
          <g text-rendering="geometricPrecision" stroke-miterlimit="1.45" shape-rendering="geometricPrecision" font-family="sans-serif" transform="matrix(1,0,0,1,714,295)" stroke-linecap="butt">
            <text x="725.1885" xml:space="preserve" y="-241.5374" stroke="none">Begrip</text>
          </g>
        </g>
      </a>
    </g>
    <g id="y.node.17">
      <a target="_blank" xlink:type="simple" xlink:href="http://example.org/doc#Artikel36lid1Pw" xlink:show="new">
        <g fill="rgb(160,160,160)" text-rendering="geometricPrecision" shape-rendering="geometricPrecision" transform="matrix(1,0,0,1,714,295)" stroke="rgb(160,160,160)">
          <ellipse rx="60.3174" ry="33" cx="194.2656" cy="-82.8344" stroke="none"/>
        </g>
        <g text-rendering="geometricPrecision" stroke-miterlimit="1.45" shape-rendering="geometricPrecision" transform="matrix(1,0,0,1,714,295)" stroke-linecap="butt">
          <ellipse rx="60.3174" fill="none" ry="33" cx="194.2656" cy="-82.8344"/>
        </g>
        <g>
          <g text-rendering="geometricPrecision" stroke-miterlimit="1.45" shape-rendering="geometricPrecision" font-family="sans-serif" transform="matrix(1,0,0,1,714,295)" stroke-linecap="butt">
            <text x="140.9482" xml:space="preserve" y="-78.2992" stroke="none">Artikel 36 lid 1 Pw</text>
          </g>
        </g>
      </a>
    </g>
    <g id="y.node.18">
      <a target="_blank" xlink:type="simple" xlink:href="http://example.org/ex#ErIsGeletOpDeOMstandigheden" xlink:show="new">
        <g fill="rgb(255,204,0)" text-rendering="geometricPrecision" shape-rendering="geometricPrecision" transform="matrix(1,0,0,1,714,295)" stroke="rgb(255,204,0)">
          <ellipse rx="104.7666" ry="33" cx="194.2656" cy="-246.0726" stroke="none"/>
        </g>
        <g text-rendering="geometricPrecision" stroke-miterlimit="1.45" shape-rendering="geometricPrecision" transform="matrix(1,0,0,1,714,295)" stroke-linecap="butt">
          <ellipse rx="104.7666" fill="none" ry="33" cx="194.2656" cy="-246.0726"/>
        </g>
        <g>
          <g text-rendering="geometricPrecision" stroke-miterlimit="1.45" shape-rendering="geometricPrecision" font-family="sans-serif" transform="matrix(1,0,0,1,714,295)" stroke-linecap="butt">
            <text x="96.499" xml:space="preserve" y="-241.5374" stroke="none">Er is gelet op de omstandigheden</text>
          </g>
        </g>
      </a>
    </g>
    <g id="y.node.19">
      <a target="_blank" xlink:type="simple" xlink:href="http://example.org/ex#VermogenAlsBedoeldInArtikel34" xlink:show="new">
        <g fill="rgb(255,204,0)" text-rendering="geometricPrecision" shape-rendering="geometricPrecision" transform="matrix(1,0,0,1,714,295)" stroke="rgb(255,204,0)">
          <rect x="414.9215" y="49.6666" width="218.4512" rx="4" ry="4" height="66" stroke="none"/>
        </g>
        <g text-rendering="geometricPrecision" stroke-miterlimit="1.45" shape-rendering="geometricPrecision" transform="matrix(1,0,0,1,714,295)" stroke-linecap="butt">
          <rect x="414.9215" y="49.6666" fill="none" width="218.4512" rx="4" ry="4" height="66"/>
        </g>
        <g>
          <g text-rendering="geometricPrecision" stroke-miterlimit="1.45" shape-rendering="geometricPrecision" font-family="sans-serif" transform="matrix(1,0,0,1,714,295)" stroke-linecap="butt">
            <text x="499.359" xml:space="preserve" y="80.1354" stroke="none">«Begrip»</text>
            <text x="421.9215" xml:space="preserve" y="94.2682" stroke="none">Vermogen als bedoeld in artikel 34</text>
          </g>
        </g>
      </a>
    </g>
    <g id="y.node.20">
      <a target="_blank" xlink:type="simple" xlink:href="http://example.org/doc#Artikel8lid2Pw" xlink:show="new">
        <g fill="rgb(160,160,160)" text-rendering="geometricPrecision" shape-rendering="geometricPrecision" transform="matrix(1,0,0,1,714,295)" stroke="rgb(160,160,160)">
          <ellipse rx="56.5234" ry="33" cx="925.4888" cy="274.6666" stroke="none"/>
        </g>
        <g text-rendering="geometricPrecision" stroke-miterlimit="1.45" shape-rendering="geometricPrecision" transform="matrix(1,0,0,1,714,295)" stroke-linecap="butt">
          <ellipse rx="56.5234" fill="none" ry="33" cx="925.4888" cy="274.6666"/>
        </g>
        <g>
          <g text-rendering="geometricPrecision" stroke-miterlimit="1.45" shape-rendering="geometricPrecision" font-family="sans-serif" transform="matrix(1,0,0,1,714,295)" stroke-linecap="butt">
            <text x="875.9654" xml:space="preserve" y="279.2018" stroke="none">Artikel 8 lid 2 Pw</text>
          </g>
        </g>
      </a>
    </g>
    <g id="y.edge.5">
      <a target="_blank" xlink:type="simple" xlink:href="http://bpm4mc2.org/def/regelvorming#beperkt" xlink:show="new">
        <g text-rendering="geometricPrecision" stroke-miterlimit="1.45" shape-rendering="geometricPrecision" transform="matrix(1,0,0,1,714,295)" stroke-linecap="butt">
          <path fill="none" d="M145.4723 51.8573 L-43.1406 -58.4909"/>
          <path d="M-50.0457 -62.5308 L-42.213 -52.1554 L-42.2775 -57.986 L-37.1632 -60.7867 Z" stroke="none"/>
        </g>
        <g>
          <g stroke-linecap="butt" transform="matrix(0.8631,0.505,-0.505,0.8631,739.8743,266.3823)" fill="white" text-rendering="geometricPrecision" shape-rendering="geometricPrecision" stroke="white" stroke-miterlimit="1.45">
            <rect x="0" width="48.8887" height="18.1328" y="0" stroke="none"/>
            <text fill="black" x="2" xml:space="preserve" y="13.6016" font-family="sans-serif" stroke="none">beperkt</text>
          </g>
        </g>
      </a>
    </g>
    <g id="y.edge.8">
      <a target="_blank" xlink:type="simple" xlink:href="http://purl.org/dc/terms/subject" xlink:show="new">
        <g text-rendering="geometricPrecision" stroke-miterlimit="1.45" shape-rendering="geometricPrecision" transform="matrix(1,0,0,1,714,295)" stroke-linecap="butt">
          <path fill="none" d="M-648.6417 47.4039 L-648.6417 -41.8614"/>
          <path d="M-648.6417 -49.8614 L-653.6417 -37.8614 L-648.6417 -40.8614 L-643.6417 -37.8614 Z" stroke="none"/>
        </g>
        <g>
          <g stroke-linecap="butt" transform="matrix(0,-1,1,0,56.2918,315.3961)" fill="white" text-rendering="geometricPrecision" shape-rendering="geometricPrecision" stroke="white" stroke-miterlimit="1.45">
            <rect x="0" width="43.2227" height="18.1328" y="0" stroke="none"/>
            <text fill="black" x="2" xml:space="preserve" y="13.6016" font-family="sans-serif" stroke="none">betreft</text>
          </g>
        </g>
      </a>
    </g>
    <g id="y.edge.13">
      <a target="_blank" xlink:type="simple" xlink:href="http://purl.org/dc/terms/source" xlink:show="new">
        <g text-rendering="geometricPrecision" stroke-miterlimit="1.45" shape-rendering="geometricPrecision" transform="matrix(1,0,0,1,714,295)" stroke-linecap="butt">
          <path fill="none" d="M769.1905 178.6666 L865.6822 178.6666"/>
          <path d="M873.6822 178.6666 L861.6822 173.6666 L864.6822 178.6666 L861.6822 183.6666 Z" stroke="none"/>
        </g>
        <g>
          <g stroke-linecap="butt" transform="matrix(1,0,0,1,714,295)" fill="white" text-rendering="geometricPrecision" shape-rendering="geometricPrecision" stroke="white" stroke-miterlimit="1.45">
            <rect x="790.2069" width="62.459" height="18.1328" y="169.6002" stroke="none"/>
            <text fill="black" x="792.2068" xml:space="preserve" y="183.2018" font-family="sans-serif" stroke="none">grondslag</text>
          </g>
        </g>
      </a>
    </g>
    <g id="y.edge.7">
      <a target="_blank" xlink:type="simple" xlink:href="http://bpm4mc2.org/def/regelvorming#normeert" xlink:show="new">
        <g text-rendering="geometricPrecision" stroke-miterlimit="1.45" shape-rendering="geometricPrecision" transform="matrix(1,0,0,1,714,295)" stroke-linecap="butt">
          <path fill="none" d="M-128.7721 -82.8344 L-224.9077 -82.8344"/>
          <path d="M-232.9077 -82.8344 L-220.9077 -77.8344 L-223.9077 -82.8344 L-220.9077 -87.8344 Z" stroke="none"/>
        </g>
        <g>
          <g stroke-linecap="butt" transform="matrix(1,0,-0,1,504.3067,203.0992)" fill="white" text-rendering="geometricPrecision" shape-rendering="geometricPrecision" stroke="white" stroke-miterlimit="1.45">
            <rect x="0" width="57.7012" height="18.1328" y="0" stroke="none"/>
            <text fill="black" x="2" xml:space="preserve" y="13.6016" font-family="sans-serif" stroke="none">normeert</text>
          </g>
        </g>
      </a>
    </g>
    <g id="y.edge.14">
      <a target="_blank" xlink:type="simple" xlink:href="http://bpm4mc2.org/def/regelvorming#actor" xlink:show="new">
        <g text-rendering="geometricPrecision" stroke-miterlimit="1.45" shape-rendering="geometricPrecision" transform="matrix(1,0,0,1,714,295)" stroke-linecap="butt">
          <path fill="none" d="M-468.1042 -82.8344 L-601.1051 -82.8344"/>
          <path d="M-609.1051 -82.8344 L-597.1051 -77.8344 L-600.1051 -82.8344 L-597.1051 -87.8344 Z" stroke="none"/>
        </g>
        <g>
          <g stroke-linecap="butt" transform="matrix(1,0,-0,1,158.615,203.0992)" fill="white" text-rendering="geometricPrecision" shape-rendering="geometricPrecision" stroke="white" stroke-miterlimit="1.45">
            <rect x="0" width="33.543" height="18.1328" y="0" stroke="none"/>
            <text fill="black" x="2" xml:space="preserve" y="13.6016" font-family="sans-serif" stroke="none">actor</text>
          </g>
        </g>
      </a>
    </g>
    <g id="y.edge.0">
      <a target="_blank" xlink:type="simple" xlink:href="http://www.w3.org/2004/02/skos/core#related" xlink:show="new">
        <g text-rendering="geometricPrecision" stroke-miterlimit="1.45" shape-rendering="geometricPrecision" transform="matrix(1,0,0,1,714,295)" stroke-linecap="butt">
          <path fill="none" d="M267.3546 102.1751 L426.9224 149.706"/>
          <path d="M434.5895 151.9898 L424.5162 143.7722 L425.964 149.4205 L421.6615 153.356 Z" stroke="none"/>
        </g>
        <g>
          <g stroke-linecap="butt" transform="matrix(0.9584,0.2855,-0.2855,0.9584,1042.1826,405.8341)" fill="white" text-rendering="geometricPrecision" shape-rendering="geometricPrecision" stroke="white" stroke-miterlimit="1.45">
            <rect x="0" width="78.1855" height="18.1328" y="0" stroke="none"/>
            <text fill="black" x="2" xml:space="preserve" y="13.6016" font-family="sans-serif" stroke="none">verwijst naar</text>
          </g>
        </g>
      </a>
    </g>
    <g id="y.edge.12">
      <a target="_blank" xlink:type="simple" xlink:href="http://purl.org/dc/terms/subject" xlink:show="new">
        <g text-rendering="geometricPrecision" stroke-miterlimit="1.45" shape-rendering="geometricPrecision" transform="matrix(1,0,0,1,714,295)" stroke-linecap="butt">
          <path fill="none" d="M718.1885 178.6666 L621.7302 178.6666"/>
          <path d="M613.7302 178.6666 L625.7302 183.6666 L622.7302 178.6666 L625.7302 173.6666 Z" stroke="none"/>
        </g>
        <g>
          <g stroke-linecap="butt" transform="matrix(1,0,-0,1,1358.3314,464.6002)" fill="white" text-rendering="geometricPrecision" shape-rendering="geometricPrecision" stroke="white" stroke-miterlimit="1.45">
            <rect x="0" width="43.2227" height="18.1328" y="0" stroke="none"/>
            <text fill="black" x="2" xml:space="preserve" y="13.6016" font-family="sans-serif" stroke="none">betreft</text>
          </g>
        </g>
      </a>
    </g>
    <g id="y.edge.3">
      <a target="_blank" xlink:type="simple" xlink:href="http://www.w3.org/2004/02/skos/core#related" xlink:show="new">
        <g text-rendering="geometricPrecision" stroke-miterlimit="1.45" shape-rendering="geometricPrecision" transform="matrix(1,0,0,1,714,295)" stroke-linecap="butt">
          <path fill="none" d="M268.8295 59.2162 L414.1938 17.9103"/>
          <path d="M421.8891 15.7237 L408.9794 14.1941 L413.2318 18.1837 L411.7128 23.8133 Z" stroke="none"/>
        </g>
        <g>
          <g stroke-linecap="butt" transform="matrix(0.9619,-0.2733,0.2733,0.9619,1030.628,331.2087)" fill="white" text-rendering="geometricPrecision" shape-rendering="geometricPrecision" stroke="white" stroke-miterlimit="1.45">
            <rect x="0" width="78.1855" height="18.1328" y="0" stroke="none"/>
            <text fill="black" x="2" xml:space="preserve" y="13.6016" font-family="sans-serif" stroke="none">verwijst naar</text>
          </g>
        </g>
      </a>
    </g>
    <g id="y.edge.16">
      <a target="_blank" xlink:type="simple" xlink:href="http://purl.org/dc/terms/source" xlink:show="new">
        <g text-rendering="geometricPrecision" stroke-miterlimit="1.45" shape-rendering="geometricPrecision" transform="matrix(1,0,0,1,714,295)" stroke-linecap="butt">
          <path fill="none" d="M769.1905 82.6666 L872.0074 82.6666"/>
          <path d="M880.0074 82.6666 L868.0074 77.6666 L871.0074 82.6666 L868.0074 87.6666 Z" stroke="none"/>
        </g>
        <g>
          <g stroke-linecap="butt" transform="matrix(1,0,0,1,714,295)" fill="white" text-rendering="geometricPrecision" shape-rendering="geometricPrecision" stroke="white" stroke-miterlimit="1.45">
            <rect x="793.3694" width="62.459" height="18.1328" y="73.6002" stroke="none"/>
            <text fill="black" x="795.3694" xml:space="preserve" y="87.2018" font-family="sans-serif" stroke="none">grondslag</text>
          </g>
        </g>
      </a>
    </g>
    <g id="y.edge.9">
      <a target="_blank" xlink:type="simple" xlink:href="http://purl.org/dc/terms/source" xlink:show="new">
        <g text-rendering="geometricPrecision" stroke-miterlimit="1.45" shape-rendering="geometricPrecision" transform="matrix(1,0,0,1,714,295)" stroke-linecap="butt">
          <path fill="none" d="M-648.6417 113.4039 L-648.6417 202.6421"/>
          <path d="M-648.6417 210.6421 L-643.6417 198.6421 L-648.6417 201.6421 L-653.6417 198.6421 Z" stroke="none"/>
        </g>
        <g>
          <g stroke-linecap="butt" transform="matrix(0,-1,1,0,56.2918,488.2525)" fill="white" text-rendering="geometricPrecision" shape-rendering="geometricPrecision" stroke="white" stroke-miterlimit="1.45">
            <rect x="0" width="62.459" height="18.1328" y="0" stroke="none"/>
            <text fill="black" x="2" xml:space="preserve" y="13.6016" font-family="sans-serif" stroke="none">grondslag</text>
          </g>
        </g>
      </a>
    </g>
    <g id="y.edge.1">
      <a target="_blank" xlink:type="simple" xlink:href="http://www.w3.org/2004/02/skos/core#related" xlink:show="new">
        <g text-rendering="geometricPrecision" stroke-miterlimit="1.45" shape-rendering="geometricPrecision" transform="matrix(1,0,0,1,714,295)" stroke-linecap="butt">
          <path fill="none" d="M242.8205 108.9972 L461.2424 237.6229"/>
          <path d="M468.1359 241.6824 L460.3328 231.2847 L460.3807 237.1155 L455.2585 239.9016 Z" stroke="none"/>
        </g>
        <g>
          <g stroke-linecap="butt" transform="matrix(0.8617,0.5074,-0.5074,0.8617,1044.1211,444.8857)" fill="white" text-rendering="geometricPrecision" shape-rendering="geometricPrecision" stroke="white" stroke-miterlimit="1.45">
            <rect x="0" width="78.1855" height="18.1328" y="0" stroke="none"/>
            <text fill="black" x="2" xml:space="preserve" y="13.6016" font-family="sans-serif" stroke="none">verwijst naar</text>
          </g>
        </g>
      </a>
    </g>
    <g id="y.edge.10">
      <a target="_blank" xlink:type="simple" xlink:href="http://purl.org/dc/terms/subject" xlink:show="new">
        <g text-rendering="geometricPrecision" stroke-miterlimit="1.45" shape-rendering="geometricPrecision" transform="matrix(1,0,0,1,714,295)" stroke-linecap="butt">
          <path fill="none" d="M718.1885 274.6666 L618.6983 274.6666"/>
          <path d="M610.6983 274.6666 L622.6983 279.6666 L619.6983 274.6666 L622.6983 269.6666 Z" stroke="none"/>
        </g>
        <g>
          <g stroke-linecap="butt" transform="matrix(1,0,-0,1,1356.8519,560.6002)" fill="white" text-rendering="geometricPrecision" shape-rendering="geometricPrecision" stroke="white" stroke-miterlimit="1.45">
            <rect x="0" width="43.2227" height="18.1328" y="0" stroke="none"/>
            <text fill="black" x="2" xml:space="preserve" y="13.6016" font-family="sans-serif" stroke="none">betreft</text>
          </g>
        </g>
      </a>
    </g>
    <g id="y.edge.17">
      <a target="_blank" xlink:type="simple" xlink:href="http://purl.org/dc/terms/subject" xlink:show="new">
        <g text-rendering="geometricPrecision" stroke-miterlimit="1.45" shape-rendering="geometricPrecision" transform="matrix(1,0,0,1,714,295)" stroke-linecap="butt">
          <path fill="none" d="M718.1885 -246.0726 L628.5756 -246.0726"/>
          <path d="M620.5756 -246.0726 L632.5756 -241.0726 L629.5756 -246.0726 L632.5756 -251.0726 Z" stroke="none"/>
        </g>
        <g>
          <g stroke-linecap="butt" transform="matrix(1,0,-0,1,1361.7928,39.861)" fill="white" text-rendering="geometricPrecision" shape-rendering="geometricPrecision" stroke="white" stroke-miterlimit="1.45">
            <rect x="0" width="43.2227" height="18.1328" y="0" stroke="none"/>
            <text fill="black" x="2" xml:space="preserve" y="13.6016" font-family="sans-serif" stroke="none">betreft</text>
          </g>
        </g>
      </a>
    </g>
    <g id="y.edge.18">
      <a target="_blank" xlink:type="simple" xlink:href="http://purl.org/dc/terms/source" xlink:show="new">
        <g text-rendering="geometricPrecision" stroke-miterlimit="1.45" shape-rendering="geometricPrecision" transform="matrix(1,0,0,1,714,295)" stroke-linecap="butt">
          <path fill="none" d="M769.1905 -246.0726 L857.1714 -246.0726"/>
          <path d="M865.1714 -246.0726 L853.1714 -251.0726 L856.1714 -246.0726 L853.1714 -241.0726 Z" stroke="none"/>
        </g>
        <g>
          <g stroke-linecap="butt" transform="matrix(1,0,0,1,714,295)" fill="white" text-rendering="geometricPrecision" shape-rendering="geometricPrecision" stroke="white" stroke-miterlimit="1.45">
            <rect x="785.9515" width="62.459" height="18.1328" y="-255.139" stroke="none"/>
            <text fill="black" x="787.9515" xml:space="preserve" y="-241.5374" font-family="sans-serif" stroke="none">grondslag</text>
          </g>
        </g>
      </a>
    </g>
    <g id="y.edge.4">
      <a target="_blank" xlink:type="simple" xlink:href="http://purl.org/dc/terms/source" xlink:show="new">
        <g text-rendering="geometricPrecision" stroke-miterlimit="1.45" shape-rendering="geometricPrecision" transform="matrix(1,0,0,1,714,295)" stroke-linecap="butt">
          <path fill="none" d="M194.2655 47.4039 L194.2655 -41.8344"/>
          <path d="M194.2655 -49.8344 L189.2655 -37.8344 L194.2655 -40.8344 L199.2655 -37.8344 Z" stroke="none"/>
        </g>
        <g>
          <g stroke-linecap="butt" transform="matrix(0,-1,1,0,899.1991,325.0143)" fill="white" text-rendering="geometricPrecision" shape-rendering="geometricPrecision" stroke="white" stroke-miterlimit="1.45">
            <rect x="0" width="62.459" height="18.1328" y="0" stroke="none"/>
            <text fill="black" x="2" xml:space="preserve" y="13.6016" font-family="sans-serif" stroke="none">grondslag</text>
          </g>
        </g>
      </a>
    </g>
    <g id="y.edge.6">
      <a target="_blank" xlink:type="simple" xlink:href="http://purl.org/dc/terms/source" xlink:show="new">
        <g text-rendering="geometricPrecision" stroke-miterlimit="1.45" shape-rendering="geometricPrecision" transform="matrix(1,0,0,1,714,295)" stroke-linecap="butt">
          <path fill="none" d="M-40.7272 -82.8344 L125.9482 -82.8344"/>
          <path d="M133.9482 -82.8344 L121.9482 -87.8344 L124.9482 -82.8344 L121.9482 -77.8344 Z" stroke="none"/>
        </g>
        <g>
          <g stroke-linecap="butt" transform="matrix(1,0,0,1,714,295)" fill="white" text-rendering="geometricPrecision" shape-rendering="geometricPrecision" stroke="white" stroke-miterlimit="1.45">
            <rect x="15.381" width="62.459" height="18.1328" y="-91.9008" stroke="none"/>
            <text fill="black" x="17.381" xml:space="preserve" y="-78.2992" font-family="sans-serif" stroke="none">grondslag</text>
          </g>
        </g>
      </a>
    </g>
    <g id="y.edge.19">
      <a target="_blank" xlink:type="simple" xlink:href="http://www.w3.org/2004/02/skos/core#related" xlink:show="new">
        <g text-rendering="geometricPrecision" stroke-miterlimit="1.45" shape-rendering="geometricPrecision" transform="matrix(1,0,0,1,714,295)" stroke-linecap="butt">
          <path fill="none" d="M299.0322 -246.0726 L405.7204 -246.0726"/>
          <path d="M413.7204 -246.0726 L401.7204 -251.0726 L404.7204 -246.0726 L401.7204 -241.0726 Z" stroke="none"/>
        </g>
        <g>
          <g stroke-linecap="butt" transform="matrix(1,0,0,1,714,295)" fill="white" text-rendering="geometricPrecision" shape-rendering="geometricPrecision" stroke="white" stroke-miterlimit="1.45">
            <rect x="317.2849" width="78.1855" height="18.1328" y="-255.139" stroke="none"/>
            <text fill="black" x="319.2849" xml:space="preserve" y="-241.5374" font-family="sans-serif" stroke="none">verwijst naar</text>
          </g>
        </g>
      </a>
    </g>
    <g id="y.edge.20">
      <a target="_blank" xlink:type="simple" xlink:href="http://purl.org/dc/terms/source" xlink:show="new">
        <g text-rendering="geometricPrecision" stroke-miterlimit="1.45" shape-rendering="geometricPrecision" transform="matrix(1,0,0,1,714,295)" stroke-linecap="butt">
          <path fill="none" d="M194.2655 -213.0726 L194.2655 -123.8344"/>
          <path d="M194.2655 -115.8344 L199.2655 -127.8344 L194.2655 -124.8344 L189.2655 -127.8344 Z" stroke="none"/>
        </g>
        <g>
          <g stroke-linecap="butt" transform="matrix(0,-1,1,0,899.1991,161.776)" fill="white" text-rendering="geometricPrecision" shape-rendering="geometricPrecision" stroke="white" stroke-miterlimit="1.45">
            <rect x="0" width="62.459" height="18.1328" y="0" stroke="none"/>
            <text fill="black" x="2" xml:space="preserve" y="13.6016" font-family="sans-serif" stroke="none">grondslag</text>
          </g>
        </g>
      </a>
    </g>
    <g id="y.edge.21">
      <a target="_blank" xlink:type="simple" xlink:href="http://bpm4mc2.org/def/regelvorming#beperkt" xlink:show="new">
        <g text-rendering="geometricPrecision" stroke-miterlimit="1.45" shape-rendering="geometricPrecision" transform="matrix(1,0,0,1,714,295)" stroke-linecap="butt">
          <path fill="none" d="M144.6008 -217.0162 L-43.1406 -107.1778"/>
          <path d="M-50.0457 -103.138 L-37.1632 -104.882 L-42.2775 -107.6827 L-42.213 -113.5133 Z" stroke="none"/>
        </g>
        <g>
          <g stroke-linecap="butt" transform="matrix(0.8631,-0.505,0.505,0.8631,730.7177,142.298)" fill="white" text-rendering="geometricPrecision" shape-rendering="geometricPrecision" stroke="white" stroke-miterlimit="1.45">
            <rect x="0" width="48.8887" height="18.1328" y="0" stroke="none"/>
            <text fill="black" x="2" xml:space="preserve" y="13.6016" font-family="sans-serif" stroke="none">beperkt</text>
          </g>
        </g>
      </a>
    </g>
    <g id="y.edge.2">
      <a target="_blank" xlink:type="simple" xlink:href="http://www.w3.org/2004/02/skos/core#related" xlink:show="new">
        <g text-rendering="geometricPrecision" stroke-miterlimit="1.45" shape-rendering="geometricPrecision" transform="matrix(1,0,0,1,714,295)" stroke-linecap="butt">
          <path fill="none" d="M291.5035 81.0709 L406.8968 81.8624"/>
          <path d="M414.8966 81.9172 L402.9312 76.8351 L405.8969 81.8555 L402.8626 86.8348 Z" stroke="none"/>
        </g>
        <g>
          <g stroke-linecap="butt" transform="matrix(1,0.0069,-0.0069,1,1028.1928,367.1599)" fill="white" text-rendering="geometricPrecision" shape-rendering="geometricPrecision" stroke="white" stroke-miterlimit="1.45">
            <rect x="0" width="78.1855" height="18.1328" y="0" stroke="none"/>
            <text fill="black" x="2" xml:space="preserve" y="13.6016" font-family="sans-serif" stroke="none">verwijst naar</text>
          </g>
        </g>
      </a>
    </g>
    <g id="y.edge.15">
      <a target="_blank" xlink:type="simple" xlink:href="http://purl.org/dc/terms/subject" xlink:show="new">
        <g text-rendering="geometricPrecision" stroke-miterlimit="1.45" shape-rendering="geometricPrecision" transform="matrix(1,0,0,1,714,295)" stroke-linecap="butt">
          <path fill="none" d="M718.1885 82.6666 L641.3428 82.6666"/>
          <path d="M633.3428 82.6666 L645.3428 87.6666 L642.3428 82.6666 L645.3428 77.6666 Z" stroke="none"/>
        </g>
        <g>
          <g stroke-linecap="butt" transform="matrix(1,0,-0,1,1368.1693,368.6002)" fill="white" text-rendering="geometricPrecision" shape-rendering="geometricPrecision" stroke="white" stroke-miterlimit="1.45">
            <rect x="0" width="43.2227" height="18.1328" y="0" stroke="none"/>
            <text fill="black" x="2" xml:space="preserve" y="13.6016" font-family="sans-serif" stroke="none">betreft</text>
          </g>
        </g>
      </a>
    </g>
    <g id="y.edge.11">
      <a target="_blank" xlink:type="simple" xlink:href="http://purl.org/dc/terms/source" xlink:show="new">
        <g text-rendering="geometricPrecision" stroke-miterlimit="1.45" shape-rendering="geometricPrecision" transform="matrix(1,0,0,1,714,295)" stroke-linecap="butt">
          <path fill="none" d="M769.1905 274.6666 L860.9654 274.6666"/>
          <path d="M868.9654 274.6666 L856.9654 269.6666 L859.9654 274.6666 L856.9654 279.6666 Z" stroke="none"/>
        </g>
        <g>
          <g stroke-linecap="butt" transform="matrix(1,0,0,1,714,295)" fill="white" text-rendering="geometricPrecision" shape-rendering="geometricPrecision" stroke="white" stroke-miterlimit="1.45">
            <rect x="787.8485" width="62.459" height="18.1328" y="265.6002" stroke="none"/>
            <text fill="black" x="789.8484" xml:space="preserve" y="279.2018" font-family="sans-serif" stroke="none">grondslag</text>
          </g>
        </g>
      </a>
    </g>
  </g>
</svg>
